Coordinates
version=1
nRows=19
nColumns=24
inDegrees=yes

Units are S.I. units (second, meters, Newtons, ...)
Angles are in degrees.

endheader
time	pelvis_tilt	pelvis_list	pelvis_rotation	pelvis_tx	pelvis_ty	pelvis_tz	hip_flexion_r	hip_adduction_r	hip_rotation_r	knee_angle_r	ankle_angle_r	subtalar_angle_r	mtp_angle_r	hip_flexion_l	hip_adduction_l	hip_rotation_l	knee_angle_l	ankle_angle_l	subtalar_angle_l	mtp_angle_l	lumbar_extension	lumbar_bending	lumbar_rotation
      1.96000000	     27.01670580	     -2.34761471	      3.13096950	      0.36767472	      0.91970578	     -0.00074251	    -29.48094402	      5.62635509	     14.65733327	      4.59860623	     -0.85200581	    -14.24254183	     30.06935300	    -18.21995491	     -2.81835470	     -2.86666706	    -54.22454739	      0.71768338	    -22.27511197	     26.06021867	    -33.03913121	      4.37728511	      3.41856532
      1.96500000	     27.04177456	     -2.10290425	      3.08157044	      0.37295630	      0.92001116	     -0.00064039	    -30.14805005	      5.31487002	     14.88393472	      5.11501072	     -0.84381597	    -14.43812365	     30.01912870	    -17.51758870	     -2.39762949	     -2.51964298	    -53.70173369	      1.58795880	    -22.06124272	     26.03867670	    -33.08889333	      4.08469475	      3.35266004
      1.97000000	     27.04869977	     -1.88661956	      3.02552878	      0.37820772	      0.92021369	     -0.00053854	    -30.78607883	      5.02425979	     15.17921755	      5.62630530	     -0.91941153	    -14.79987016	     29.93787604	    -16.80533767	     -2.00561449	     -2.18453576	    -53.11822816	      2.51928268	    -21.71932242	     25.99930568	    -33.12351111	      3.81598478	      3.32263738
      1.97500000	     27.01017467	     -1.69280744	      2.94368278	      0.38348437	      0.92029087	     -0.00038705	    -31.37098873	      4.74032674	     15.55894948	      6.13867563	     -1.07593378	    -15.41755134	     29.81821344	    -16.06445676	     -1.63299011	     -1.87742499	    -52.46004453	      3.44619597	    -21.35928353	     25.84371904	    -33.10447418	      3.55042518	      3.34014424
      1.98000000	     27.03310654	     -1.47548560	      2.92394730	      0.38871483	      0.92036730	     -0.00038007	    -32.02803947	      4.45748661	     15.81922145	      6.65758865	     -1.10633346	    -15.74474529	     29.75489722	    -15.40563655	     -1.22562451	     -1.44267740	    -51.70346118	      4.18687178	    -21.17354525	     25.75769018	    -33.15430137	      3.30097302	      3.25671739
      1.98500000	     26.99965089	     -1.31063321	      2.86971768	      0.39396611	      0.92028707	     -0.00030220	    -32.62266242	      4.20431330	     16.21458244	      7.19277691	     -1.29564661	    -16.44734471	     29.62279602	    -14.69856471	     -0.88363809	     -1.08897351	    -50.90787611	      5.01080190	    -20.90629282	     25.56263364	    -33.14165494	      3.08026878	      3.26207264
      1.99000000	     27.00152844	     -1.10209063	      2.85391115	      0.39916901	      0.92021899	     -0.00030327	    -33.22741860	      3.93915088	     16.41714488	      7.65399673	     -1.27087593	    -16.75459649	     29.56656125	    -14.05972423	     -0.47595268	     -0.59562450	    -49.99096320	      5.59355283	    -20.80416289	     25.48133760	    -33.17159964	      2.83572369	      3.19479529
      1.99500000	     27.00192316	     -0.94349916	      2.83630088	      0.40434453	      0.92004808	     -0.00029909	    -33.83392407	      3.71209767	     16.73881156	      8.14218422	     -1.39250078	    -17.29357919	     29.45650343	    -13.43082705	     -0.13167179	     -0.12451580	    -49.03427897	      6.21711287	    -20.68790717	     25.34967141	    -33.20259426	      2.63941815	      3.13647772
      2.00000000	     26.97860220	     -0.79731128	      2.81797638	      0.40951892	      0.91978726	     -0.00031029	    -34.40635455	      3.49755808	     17.03354994	      8.61865589	     -1.49807798	    -17.87939327	     29.33730766	    -12.79284414	      0.19795343	      0.35363908	    -48.01957032	      6.74492050	    -20.65597864	     25.18261512	    -33.20690939	      2.45650087	      3.11227139
      2.00500000	     26.91442590	     -0.71347406	      2.78649156	      0.41472569	      0.91940109	     -0.00028540	    -34.88821224	      3.34634373	     17.26534971	      8.99222524	     -1.35736655	    -18.05577324	     29.30817736	    -12.12381881	      0.44590700	      0.77202480	    -46.97038391	      7.27888006	    -20.74733536	     25.14310118	    -33.16329965	      2.32320202	      3.12261466
      2.01000000	     26.90013556	     -0.61216947	      2.77714376	      0.41980809	      0.91901252	     -0.00031448	    -35.48046181	      3.16696758	     17.70080401	      9.52945813	     -1.76129442	    -19.18193999	     29.04657359	    -11.52888963	      0.72703653	      1.30082035	    -45.84670528	      7.62821230	    -20.93827233	     24.73675506	    -33.18640372	      2.18731038	      3.13011474
      2.01500000	     26.87887735	     -0.51165282	      2.79152480	      0.42492530	      0.91857174	     -0.00034536	    -35.98988609	      3.04012427	     17.82020162	      9.86783533	     -1.67594244	    -19.44084626	     28.99532639	    -10.95163203	      0.98164365	      1.85273048	    -44.66486208	      7.96731641	    -20.97001156	     24.58108312	    -33.19771544	      2.05741010	      3.08405241
      2.02000000	     26.82232507	     -0.48133426	      2.78731614	      0.43005659	      0.91800840	     -0.00035204	    -36.43754552	      2.96802456	     17.99201632	     10.16718156	     -1.50236485	    -19.58727948	     28.97301243	    -10.34340188	      1.14533407	      2.32902846	    -43.47320318	      8.36493973	    -21.09161514	     24.52425926	    -33.16741590	      1.98695175	      3.09854110
      2.02500000	     26.82948781	     -0.39051388	      2.83788251	      0.43511308	      0.91749566	     -0.00045507	    -36.97794515	      2.87634391	     18.06812992	     10.51918381	     -1.59093694	    -20.06149666	     28.84500476	     -9.84812012	      1.38725426	      2.98792762	    -42.16486334	      8.45214862	    -21.42621238	     24.27583524	    -33.21388727	      1.88574172	      3.03718536
      2.03000000	     26.77894918	     -0.37799618	      2.85505614	      0.44014434	      0.91683159	     -0.00053390	    -37.42204355	      2.83034362	     18.27018636	     10.82281393	     -1.55596757	    -20.51170612	     28.71411456	     -9.28918199	      1.53606665	      3.56929743	    -40.86409622	      8.58440714	    -21.83094111	     23.95414136	    -33.20055655	      1.84757475	      3.05589863
      2.03500000	     26.73476228	     -0.40543294	      2.86761014	      0.44514144	      0.91613262	     -0.00057919	    -37.83676557	      2.83091305	     18.45549986	     11.05626267	     -1.49272034	    -20.83075174	     28.56867574	     -8.76017679	      1.62480031	      4.14018277	    -39.51932465	      8.73115725	    -22.21868086	     23.49619885	    -33.19723411	      1.84217241	      3.08337439
      2.04000000	     26.67416991	     -0.44865625	      2.89950721	      0.45018038	      0.91535702	     -0.00061773	    -38.20932609	      2.87699292	     18.52743081	     11.22101988	     -1.23570028	    -20.94008161	     28.55649370	     -8.22231400	      1.65992493	      4.69088101	    -38.17368379	      8.97070970	    -22.25571152	     23.43461854	    -33.17006646	      1.85526016	      3.11732805
      2.04500000	     26.63438184	     -0.47205216	      2.95659824	      0.45515577	      0.91459665	     -0.00076242	    -38.59885640	      2.91822769	     18.54714356	     11.37948524	     -1.07709339	    -21.05306719	     28.42457834	     -7.75917312	      1.74484392	      5.38781129	    -36.70523341	      8.86237546	    -22.87165830	     22.99549734	    -33.17166794	      1.87056929	      3.10066490
      2.05000000	     26.57462028	     -0.55610606	      3.00935782	      0.46014480	      0.91372608	     -0.00082104	    -38.94107784	      3.02409054	     18.60033127	     11.48806700	     -0.80126907	    -21.14332492	     28.40850393	     -7.26198641	      1.71050234	      5.98400603	    -35.29098663	      9.03055237	    -22.90652221	     22.92721207	    -33.14854723	      1.93029231	      3.13719700
